<?xml version="1.0" encoding="UTF-8" standalone="no"?>
<svg width="168px" height="45px" viewBox="0 0 168 45" version="1.1" xmlns="http://www.w3.org/2000/svg" xmlns:xlink="http://www.w3.org/1999/xlink">
    <!-- Generator: Sketch 3.8.3 (29802) - http://www.bohemiancoding.com/sketch -->
    <title>MADE-logo</title>
    <desc>Created with Sketch.</desc>
    <defs></defs>
    <g id="Page-1" stroke="none" stroke-width="1" fill="none" fill-rule="evenodd">
        <g id="ResponsiveIcons" transform="translate(-1203.000000, -135.000000)">
            <g id="Responsive-icons">
                <g id="Group">
                    <g id="MADE-logo" transform="translate(1203.000000, 135.000000)">
                        <path d="M154.559302,7.01706977 C154.559302,3.39195349 157.497907,0.453348837 161.123023,0.453348837 C164.74814,0.453348837 167.686744,3.39195349 167.686744,7.01706977 C167.686744,10.642186 164.74814,13.5807907 161.123023,13.5807907 C157.497907,13.5807907 154.559302,10.642186 154.559302,7.01706977" id="Shape" fill="#000000"></path>
                        <path d="M155.755465,7.01706977 C155.755465,4.05230233 158.158256,1.64951163 161.123023,1.64951163 C164.087791,1.64951163 166.490581,4.05230233 166.490581,7.01706977 C166.490581,9.98183721 164.087791,12.3846279 161.123023,12.3846279 C158.158256,12.3846279 155.755465,9.98183721 155.755465,7.01706977" id="Shape" fill="#FFFFFF"></path>
                        <path d="M160.412442,8.61906977 C160.412442,8.12930233 160.015814,7.73267442 159.526047,7.73267442 L157.191279,7.73267442 L157.191279,6.30104651 L159.526047,6.30104651 C160.015814,6.30104651 160.412442,5.9044186 160.412442,5.41465116 L160.412442,3.07988372 L161.843023,3.07988372 L161.843023,5.41465116 C161.843023,5.9044186 162.240698,6.30104651 162.730465,6.30104651 L165.065233,6.30104651 L165.065233,7.73267442 L162.730465,7.73267442 C162.240698,7.73267442 161.843023,8.12930233 161.843023,8.61906977 L161.843023,10.9538372 L160.412442,10.9538372 L160.412442,8.61906977 L160.412442,8.61906977 L160.412442,8.61906977 Z" id="Shape" fill="#000000"></path>
                        <polygon id="Shape" fill="#000000" points="123.494651 6.30146512 123.494651 44.1422791 148.742791 44.1422791 148.742791 38.0599535 129.311163 38.0599535 129.311163 28.156814 145.86907 28.156814 145.86907 22.2879767 129.311163 22.2879767 129.311163 12.3848372 148.742791 12.3848372 148.742791 6.30146512"></polygon>
                        <path d="M98.824186,38.0205 L91.8481395,38.0205 L91.8481395,12.4228256 L98.824186,12.4228256 C105.717558,12.4228256 111.306977,18.1535233 111.306977,25.2216628 C111.306977,32.2918953 105.717558,38.0205 98.824186,38.0205 M98.6117442,6.25887209 L86.0222093,6.25887209 L86.0222093,44.1415465 L98.6117442,44.1415465 C108.976395,44.1415465 117.162209,35.6721279 117.162209,25.2216628 C117.162209,14.7732907 108.976395,6.25887209 98.6117442,6.25887209" id="Shape" fill="#000000"></path>
                        <path d="M60.1635349,6.30146512 L44.4376047,44.1422791 L50.7763256,44.1422791 L53.3591163,37.6329767 L70.7678372,37.6329767 L73.3506279,44.1422791 L79.6893488,44.1422791 L63.9634186,6.30146512 L60.1635349,6.30146512 L60.1635349,6.30146512 L60.1635349,6.30146512 Z M62.0608605,17.0407674 L68.0406279,31.6186744 L56.0863256,31.6186744 L62.0608605,17.0407674 L62.0608605,17.0407674 L62.0608605,17.0407674 Z" id="Shape" fill="#000000"></path>
                        <polygon id="Shape" fill="#000000" points="33.4875349 6.30146512 19.1262558 22.6427442 4.76602326 6.30146512 0.148813953 6.30146512 0.148813953 44.1422791 5.97055814 44.1422791 5.97055814 16.9465814 19.1262558 31.7097209 32.2819535 16.9465814 32.2819535 44.1422791 38.1047442 44.1422791 38.1047442 6.30146512"></polygon>
                    </g>
                </g>
            </g>
        </g>
    </g>
</svg>